<svg xmlns="http://www.w3.org/2000/svg" xmlns:xlink="http://www.w3.org/1999/xlink" viewBox="0 0 80 60"><defs><style>.cls-1{fill:url(#radial-gradient);}.cls-2{fill:url(#linear-gradient);}</style><radialGradient id="radial-gradient" cx="0.15" cy="60.17" r="80.77" gradientUnits="userSpaceOnUse"><stop offset="0" stop-color="#5fff3f"/><stop offset="0.11" stop-color="#5dff44"/><stop offset="0.24" stop-color="#55ff53"/><stop offset="0.38" stop-color="#4aff6b"/><stop offset="0.53" stop-color="#39ff8d"/><stop offset="0.68" stop-color="#24ffb8"/><stop offset="0.84" stop-color="#0affec"/><stop offset="0.89" stop-color="#01ffff"/></radialGradient><linearGradient id="linear-gradient" x1="24" y1="36.45" x2="24" y2="49.68" gradientUnits="userSpaceOnUse"><stop offset="0" stop-color="#01f2f2" stop-opacity="0"/><stop offset="1" stop-opacity="0.5"/></linearGradient></defs><title>Asset 5</title><g id="Layer_2" data-name="Layer 2"><g id="Layer_1-2" data-name="Layer 1"><path class="cls-1" d="M79.91,32.32C78.72,48.05,65.17,60,49.39,60H19V15H29v9H47V15H57V45H47V34H29V50H49.55C60,50,69,42.2,69.92,31.81A20,20,0,0,0,50,10H10V60h0A10,10,0,0,1,0,50V3.84A3.84,3.84,0,0,1,3.84,0H50A30,30,0,0,1,79.91,32.32Z"/><rect class="cls-2" x="19" y="34" width="10" height="16"/></g></g></svg>